# xmcd
#
# Track frame offsets:
#	150
#	13356
#	23883
#	38864
#	49297
#	60825
#	71303
#	81249
#	97036
#	109885
#	123421
#	135047
#	147677
#	157843
#	168283
#	178743
#	188065
#	200559
#	211847
#	225446
#
# Disc length: 3146 seconds
#
# Revision: 0
# Processed by: cddbd v1.5.2PL0 Copyright (c) Steve Scherf et al.
# Submitted via: audiograbber 1.83.01
#
DISCID=0f0c4814
DTITLE=—борник - Viva Los 60`s
DYEAR=1900
DGENRE=
TTITLE0=Kenny Rogers and The First Edition - Ruby Don`t Take Your Love to Town
TTITLE1=Frankie Avalon - Venus
TTITLE2=Anne Murray - There Goes My Everything
TTITLE3=Pat Boone - Love Letters In The Sand
TTITLE4=Hermans Hermits - I`m Into Something Good
TTITLE5=Del Shanon - Runaway
TTITLE6=The Troggs - With A Girl Like You
TTITLE7=David Garrick - Seasons In The Sun
TTITLE8=The Bee Gees - Spicks And Specks
TTITLE9=Marmalade - Obladi Oblada
TTITLE10=Middle Of Road - Chirpy Chirpy Cheep Cheep
TTITLE11=Ike and Tina Turner - A Fool In Love
TTITLE12=Dionne Warwick - I`ll Naver Fall In Love Again
TTITLE13=Billie Davis - Tell Him
TTITLE14=Jerry Butler - It`s To Late
TTITLE15=Gladys Knight and The Pips - Every Beat Of My Heart
TTITLE16=The Crew Cuts - Sh.Boom
TTITLE17=The Equals - Baby Come Back
TTITLE18=Trini Lopez - If I Had Hammer
TTITLE19=Ace Canon - Corina, Corina
EXTD=
EXTT0=
EXTT1=
EXTT2=
EXTT3=
EXTT4=
EXTT5=
EXTT6=
EXTT7=
EXTT8=
EXTT9=
EXTT10=
EXTT11=
EXTT12=
EXTT13=
EXTT14=
EXTT15=
EXTT16=
EXTT17=
EXTT18=
EXTT19=
PLAYORDER=
